<!DOCTYPE svg PUBLIC "-//W3C//DTD SVG 1.1//EN" "http://www.w3.org/Graphics/SVG/1.1/DTD/svg11.dtd">
<!-- Uploaded to: SVG Repo, www.svgrepo.com, Transformed by: SVG Repo Mixer Tools -->
<svg fill="#CDCDCD" height="800px" width="800px" version="1.1" id="Layer_1" xmlns="http://www.w3.org/2000/svg" xmlns:xlink="http://www.w3.org/1999/xlink" viewBox="0 0 512 512" xml:space="preserve">
<g id="SVGRepo_bgCarrier" stroke-width="0"/>
<g id="SVGRepo_tracerCarrier" stroke-linecap="round" stroke-linejoin="round"/>
<g id="SVGRepo_iconCarrier"> <g> <g> <path d="M396.8,349.867h-8.55c0-1.161,0.017-8.533,0.017-8.533c0-23.526-19.14-42.667-42.667-42.667 c-23.526,0-42.667,19.14-42.667,42.667v8.533H294.4c-14.114,0-25.6,11.486-25.6,25.6v51.2c0,14.114,11.486,25.6,25.6,25.6h102.4 c14.114,0,25.6-11.486,25.6-25.6v-51.2C422.4,361.353,410.914,349.867,396.8,349.867z M320,341.333 c0-14.114,11.486-25.6,25.6-25.6c14.114,0,25.6,11.486,25.6,25.6c0,0-0.017,7.356-0.017,8.533H320V341.333z M405.333,426.667 c0,4.702-3.831,8.533-8.533,8.533H294.4c-4.702,0-8.533-3.831-8.533-8.533v-51.2c0-4.702,3.831-8.533,8.533-8.533h17.067h68.267 H396.8c4.702,0,8.533,3.831,8.533,8.533V426.667z"/> </g> </g> <g> <g> <path d="M354.133,384h-17.067c-4.71,0-8.533,3.823-8.533,8.533c0,4.71,3.823,8.533,8.533,8.533v8.533 c0,4.71,3.823,8.533,8.533,8.533c4.71,0,8.533-3.823,8.533-8.533v-8.533c4.71,0,8.533-3.823,8.533-8.533 C362.667,387.823,358.844,384,354.133,384z"/> </g> </g> <g> <g> <path d="M345.6,256c-70.579,0-128,57.421-128,128s57.421,128,128,128s128-57.421,128-128S416.179,256,345.6,256z M345.6,494.933 c-61.167,0-110.933-49.766-110.933-110.933S284.433,273.067,345.6,273.067S456.533,322.833,456.533,384 S406.767,494.933,345.6,494.933z"/> </g> </g> <g> <g> <path d="M226.133,469.333H55.467V409.6c0-4.71-3.823-8.533-8.533-8.533c-4.71,0-8.533,3.823-8.533,8.533v68.267 c0,4.71,3.823,8.533,8.533,8.533h179.2c4.71,0,8.533-3.823,8.533-8.533S230.844,469.333,226.133,469.333z"/> </g> </g> <g> <g> <path d="M46.933,366.933c-4.71,0-8.533,3.823-8.533,8.533S42.223,384,46.933,384h0.085c4.71,0,8.491-3.823,8.491-8.533 S51.644,366.933,46.933,366.933z"/> </g> </g> <g> <g> <path d="M394.3,139.034L257.766,2.5c-1.596-1.604-3.772-2.5-6.033-2.5h-204.8C42.223,0,38.4,3.823,38.4,8.533v332.8 c0,4.71,3.823,8.533,8.533,8.533c4.71,0,8.533-3.823,8.533-8.533V17.067H243.2v128c0,4.71,3.823,8.533,8.533,8.533h128v76.8 c0,4.71,3.823,8.533,8.533,8.533s8.533-3.823,8.533-8.533v-85.333C396.8,142.805,395.904,140.629,394.3,139.034z M260.267,136.533 V29.133l107.401,107.401H260.267z"/> </g> </g> </g>
</svg>