<svg width="26" height="27" viewBox="0 0 26 27" fill="none" xmlns="http://www.w3.org/2000/svg">
<path d="M11.8965 12.0722C12.913 13.858 14.392 15.337 16.1778 16.3535L17.1355 15.0123C17.2895 14.7967 17.5172 14.645 17.7755 14.5859C18.0339 14.5268 18.3049 14.5644 18.5373 14.6917C20.0695 15.529 21.7616 16.0326 23.5023 16.1693C23.7739 16.1909 24.0275 16.314 24.2124 16.5142C24.3974 16.7144 24.5 16.9769 24.5 17.2494V22.0833C24.5001 22.3515 24.4006 22.6102 24.2209 22.8093C24.0412 23.0084 23.794 23.1338 23.5272 23.1612C22.953 23.2208 22.3745 23.25 21.7917 23.25C12.5183 23.25 5 15.7317 5 6.45833C5 5.8755 5.02925 5.297 5.08883 4.72283C5.11619 4.45601 5.24157 4.20881 5.44069 4.0291C5.63981 3.84939 5.89852 3.74994 6.16675 3.75H11.0006C11.2731 3.74997 11.5356 3.85265 11.7358 4.03757C11.936 4.2225 12.0591 4.47608 12.0807 4.74775C12.2174 6.48844 12.721 8.18049 13.5583 9.71267C13.6856 9.94511 13.7232 10.2161 13.6641 10.4745C13.605 10.7328 13.4533 10.9605 13.2377 11.1145L11.8965 12.0722ZM9.97683 13.0808C9.42815 12.1041 9.80227 10.9048 10.7138 10.2537L11.2227 9.89033C10.6385 8.62944 10.2383 7.29124 10.0342 5.91667H7.1775C7.171 6.0965 7.16775 6.27742 7.16775 6.45833C7.16667 14.5357 13.7143 21.0833 21.7917 21.0833C21.9726 21.0833 22.1535 21.0801 22.3333 21.0725V18.2158C20.9588 18.0117 19.6206 17.6115 18.3597 17.0273L17.9963 17.5362C17.3452 18.4477 16.1459 18.8219 15.1693 18.2732L15.1064 18.2374C12.9815 17.0281 11.2219 15.2685 10.0126 13.1436L9.97683 13.0808Z" fill="#A8A8A8"/>
</svg>
